# xmcd
#
# Track frame offsets: 
#        150
#        11220
#        30600
#        44647
#        57450
#        77997
#        94222
#        108957
#        129142
#        154927
#        170990
#
# Disc length: 2560 seconds
#
# Revision: 1
# Processed by: cddbd v1.5.2PL0 Copyright (c) Steve Scherf et al.
# Submitted via: ExactAudioCopy v0.99pb4
#
DISCID=9509fe0b
DTITLE=Snooky Pryor - Shake My Hand
DYEAR=1999
DGENRE=Blues
TTITLE0=Shake My Hand
TTITLE1=Work With Me Annie
TTITLE2=Someday Baby
TTITLE3=Tomorrow Night
TTITLE4=Telephone Blues
TTITLE5=In This Mess
TTITLE6=Pistol Packin' Mama
TTITLE7=My Babe
TTITLE8=Headed South
TTITLE9=Jump For Joy
TTITLE10=Don't Like To Brag
EXTD=YEAR: 1999 ID3G: 0
EXTT0=
EXTT1=
EXTT2=
EXTT3=
EXTT4=
EXTT5=
EXTT6=
EXTT7=
EXTT8=
EXTT9=
EXTT10=
PLAYORDER=
